<?xml version="1.0" standalone="no"?>
<!DOCTYPE svg PUBLIC "-//W3C//DTD SVG 20010904//EN"
 "http://www.w3.org/TR/2001/REC-SVG-20010904/DTD/svg10.dtd">
<svg version="1.0" xmlns="http://www.w3.org/2000/svg"
 width="700.000000pt" height="700.000000pt" viewBox="0 0 700.000000 700.000000"
 preserveAspectRatio="xMidYMid meet">
<metadata>
Created by potrace 1.11, written by Peter Selinger 2001-2013
</metadata>
<g transform="translate(0.000000,700.000000) scale(0.100000,-0.100000)"
fill="#000000" stroke="none">
<path d="M812 6118 c-150 -23 -294 -144 -348 -293 -19 -52 -23 -80 -21 -153 3
-81 7 -97 41 -167 38 -76 65 -104 1002 -1041 l963 -964 -942 -943 c-518 -518
-955 -958 -971 -976 -15 -18 -42 -63 -59 -100 -40 -86 -47 -210 -17 -296 35
-102 106 -191 200 -250 128 -81 313 -76 445 11 28 18 561 545 1186 1171 1019
1021 1139 1144 1163 1197 34 74 45 133 41 216 -3 65 -9 84 -48 170 -16 35
-282 307 -1151 1178 -695 697 -1154 1148 -1190 1173 -89 60 -190 83 -294 67z"/>
<path d="M3500 1312 l0 -437 1530 0 c841 0 1530 2 1531 5 1 7 1 842 0 858 -1
9 -314 12 -1531 12 l-1530 0 0 -438z"/>
</g>
</svg>
